#!OML:ASF H:\MichaelJackson\Top Level 1\Subject 1\Session 1\male.ASF
:FULLY-SPECIFIED
:DEGREES
1
root 4.81051 17.0973 -20.3817 10.2674 3.19675 -0.0783867
lowerback -8.84489 1.89049 1.57228
upperback -1.15812 2.39938 -0.82238
thorax 3.85468 1.21934 -1.44626
lowerneck -12.0165 -3.33089 -0.390347
upperneck 2.60648 -4.46001 1.44828
head 2.99268 -2.15793 0.260035
rclavicle 7.54139e-015 -8.34896e-015
rhumerus -40.654 -2.08591 -88.6444
rradius 38.1729
rwrist 13.1399
rhand -25.3763 -20.531
rfingers 7.12502
rthumb 1.14817 -50.5076
lclavicle 7.54139e-015 -8.34896e-015
lhumerus -41.6235 -15.5157 93.2691
lradius 43.0948
lwrist 5.99215
lhand -1.6033 18.6288
lfingers 7.12502
lthumb 24.0538 47.1413
rfemur -18.6166 2.50526 21.3983
rtibia 28.5572
rfoot -27.0338 -16.3231
rtoes 17.5197
lfemur -21.8157 2.89306 -20.5754
ltibia 29.2542
lfoot -38.0451 -1.16889
ltoes 51.5451
2
root 4.81011 17.0938 -20.3806 10.2896 3.19208 -0.0451728
lowerback -9.33565 1.82847 1.25089
upperback -0.836007 2.3284 -0.516215
thorax 4.43528 1.18081 -0.935868
lowerneck -12.0986 -3.33785 -0.873507
upperneck 2.34395 -4.3927 1.44059
head 2.92991 -2.13178 0.347017
rclavicle 1.396e-014 6.5102e-015
rhumerus -40.1823 -1.59654 -88.2859
rradius 38.2107
rwrist 12.9033
rhand -25.3518 -20.6046
rfingers 7.12502
rthumb 1.1718 -50.5811
lclavicle 1.396e-014 6.5102e-015
lhumerus -41.0716 -15.0901 93.5488
lradius 42.9931
lwrist 5.87591
lhand -1.62956 18.6441
lfingers 7.12502
lthumb 24.0286 47.16
rfemur -18.6834 2.35154 21.3945
rtibia 28.4905
rfoot -26.6754 -16.3929
rtoes 16.2425
lfemur -21.8754 2.87886 -20.6139
ltibia 29.3408
lfoot -37.7435 -1.16357
ltoes 51.3658
3
root 4.80977 17.0936 -20.3786 10.2869 3.19514 -0.0716634
lowerback -8.92957 1.69706 1.50233
upperback -1.06197 2.1373 -0.585613
thorax 3.97988 1.08788 -1.18981
lowerneck -12.1805 -3.20923 -1.01864
upperneck 2.61207 -4.21342 1.60422
head 3.04467 -2.03626 0.433581
rclavicle 5.10182e-015 1.46262e-014
rhumerus -40.4975 -1.23139 -88.5887
rradius 38.2832
rwrist 12.9184
rhand -25.2794 -20.5922
rfingers 7.12502
rthumb 1.24176 -50.5684
lclavicle 5.10182e-015 1.46262e-014
lhumerus -41.4439 -14.6786 93.3219
lradius 43.0744
lwrist 5.84394
lhand -1.63272 18.5708
lfingers 7.12502
lthumb 24.0256 47.0871
rfemur -18.657 2.40752 21.4203
rtibia 28.4727
rfoot -26.515 -16.4475
rtoes 15.8204
lfemur -21.8758 2.81929 -20.5729
ltibia 29.3602
lfoot -37.4725 -1.09624
ltoes 51.2803
4
root 4.80867 17.0943 -20.3763 10.2827 3.20171 -0.0644445
lowerback -8.90605 1.68196 1.48468
upperback -1.07253 2.11877 -0.573086
thorax 3.95403 1.07812 -1.17007
lowerneck -12.192 -3.20401 -1.00966
upperneck 2.65398 -4.20627 1.57019
head 3.06009 -2.03378 0.420853
rclavicle -3.68966e-014 1.73315e-014
rhumerus -40.535 -1.18296 -88.5941
rradius 38.3223
rwrist 12.9291
rhand -25.2629 -20.6008
rfingers 7.12502
rthumb 1.25769 -50.5768
lclavicle -3.68966e-014 1.73315e-014
lhumerus -41.4584 -14.6114 93.3305
lradius 43.0562
lwrist 5.80895
lhand -1.55953 18.4567
lfingers 7.12502
lthumb 24.0958 46.9637
rfemur -18.635 2.40336 21.4232
rtibia 28.4496
rfoot -26.3116 -16.4876
rtoes 15.2474
lfemur -21.8668 2.8543 -20.5832
ltibia 29.3837
lfoot -37.1589 -1.08515
ltoes 51.1772
5
root 4.80924 17.1006 -20.374 10.2904 3.18083 -0.0698531
lowerback -8.95289 1.70926 1.48302
upperback -1.05372 2.15436 -0.56931
thorax 4.00069 1.09606 -1.15913
lowerneck -12.1846 -3.22096 -0.96589
upperneck 2.66217 -4.2334 1.53481
head 3.0597 -2.04815 0.399917
rclavicle -2.04795e-014 -1.16817e-014
rhumerus -40.3172 -1.36497 -88.505
rradius 38.0907
rwrist 12.7975
rhand -25.1041 -20.5677
rfingers 7.12502
rthumb 1.41098 -50.5428
lclavicle -2.04795e-014 -1.16817e-014
lhumerus -41.4193 -14.6261 93.3506
lradius 43.0257
lwrist 5.81252
lhand -1.61292 18.518
lfingers 7.12502
lthumb 24.0446 47.0318
rfemur -18.6816 2.39366 21.422
rtibia 28.4356
rfoot -26.0079 -16.4497
rtoes 14.6006
lfemur -21.8859 2.50218 -20.5253
ltibia 29.3858
lfoot -36.8266 -0.760533
ltoes 51.0541
6
root 4.80921 17.1041 -20.3716 10.293 3.17042 -0.0739233
lowerback -8.94485 1.69354 1.49324
upperback -1.05735 2.13173 -0.550255
thorax 3.99131 1.08479 -1.14824
lowerneck -12.2045 -3.20843 -1.00315
upperneck 2.70315 -4.21141 1.53175
head 3.07835 -2.03758 0.406222
rclavicle 2.1183e-014 -2.4581e-014
rhumerus -40.2169 -1.3527 -88.4816
rradius 37.9538
rwrist 12.7907
rhand -25.0689 -20.5246
rfingers 7.12502
rthumb 1.44498 -50.4995
lclavicle 2.1183e-014 -2.4581e-014
lhumerus -41.419 -14.5175 93.3493
lradius 43.008
lwrist 5.79006
lhand -1.61759 18.4871
lfingers 7.12502
lthumb 24.0401 47.0014
rfemur -18.6903 2.37321 21.4287
rtibia 28.4126
rfoot -25.778 -16.4429
rtoes 13.9836
lfemur -21.9108 2.37039 -20.4977
ltibia 29.3954
lfoot -36.4945 -0.620663
ltoes 50.8996
7
root 4.80952 17.1084 -20.3694 10.3017 3.1464 -0.0812427
lowerback -8.92854 1.68994 1.51862
upperback -1.0738 2.12457 -0.545952
thorax 3.96563 1.08136 -1.15966
lowerneck -12.2133 -3.19825 -1.01154
upperneck 2.74915 -4.1968 1.52479
head 3.09584 -2.03051 0.405864
rclavicle -1.14922e-016 -4.17448e-015
rhumerus -40.1238 -1.38152 -88.4665
rradius 37.7916
rwrist 12.8211
rhand -25.0557 -20.4666
rfingers 7.12502
rthumb 1.4578 -50.4413
lclavicle -1.14922e-016 -4.17448e-015
lhumerus -41.4368 -14.4409 93.3395
lradius 42.9914
lwrist 5.775
lhand -1.6247 18.4578
lfingers 7.12502
lthumb 24.0333 46.973
rfemur -18.7 2.34524 21.4347
rtibia 28.3798
rfoot -25.5649 -16.4007
rtoes 13.4223
lfemur -21.9512 2.22396 -20.4661
ltibia 29.4086
lfoot -36.1621 -0.452804
ltoes 50.7238
8
root 4.81004 17.1127 -20.3673 10.3146 3.11485 -0.0877867
lowerback -8.93766 1.69528 1.53304
upperback -1.07988 2.1298 -0.538164
thorax 3.9648 1.08407 -1.15888
lowerneck -12.2146 -3.19334 -1.01566
upperneck 2.78074 -4.18926 1.51108
head 3.1067 -2.02727 0.402325
rclavicle 3.57564e-014 -8.13775e-015
rhumerus -40.02 -1.42805 -88.4347
rradius 37.6403
rwrist 12.8244
rhand -25.0241 -20.4207
rfingers 7.12502
rthumb 1.48829 -50.3952
lclavicle 3.57564e-014 -8.13775e-015
lhumerus -41.4363 -14.383 93.3414
lradius 42.9698
lwrist 5.7631
lhand -1.63252 18.4325
lfingers 7.12502
lthumb 24.0258 46.9487
rfemur -18.7041 2.30812 21.4381
rtibia 28.3256
rfoot -25.3551 -16.3367
rtoes 12.8743
lfemur -22.0091 2.07673 -20.4363
ltibia 29.4444
lfoot -35.8407 -0.278769
ltoes 50.5402
9
root 4.81077 17.1167 -20.3655 10.3315 3.07594 -0.0952603
lowerback -8.94939 1.70228 1.55122
upperback -1.08725 2.13688 -0.531335
thorax 3.96431 1.08775 -1.16092
lowerneck -12.2136 -3.1861 -1.02361
upperneck 2.80971 -4.1783 1.50165
head 3.11638 -2.02224 0.40114
rclavicle -2.13461e-014 -1.21756e-015
rhumerus -39.9354 -1.45851 -88.4109
rradius 37.5033
rwrist 12.861
rhand -25.0303 -20.3645
rfingers 7.12502
rthumb 1.4823 -50.3391
lclavicle -2.13461e-014 -1.21756e-015
lhumerus -41.4367 -14.3246 93.3413
lradius 42.95
lwrist 5.75376
lhand -1.64153 18.4076
lfingers 7.12502
lthumb 24.0172 46.925
rfemur -18.7108 2.26606 21.4407
rtibia 28.2707
rfoot -25.1654 -16.2592
rtoes 12.3459
lfemur -22.0743 2.00023 -20.4164
ltibia 29.4818
lfoot -35.5257 -0.170439
ltoes 50.3543
10
root 4.81163 17.12 -20.3638 10.3509 3.03418 -0.104147
lowerback -8.96342 1.70948 1.57227
upperback -1.09545 2.14391 -0.524759
thorax 3.96436 1.09145 -1.16478
lowerneck -12.2127 -3.17675 -1.03271
upperneck 2.83876 -4.1644 1.49326
head 3.12614 -2.01572 0.400689
rclavicle 1.74387e-014 7.7526e-015
rhumerus -39.8746 -1.47241 -88.3948
rradius 37.3966
rwrist 12.9066
rhand -25.0485 -20.3186
rfingers 7.12502
rthumb 1.46473 -50.2933
lclavicle 1.74387e-014 7.7526e-015
lhumerus -41.4393 -14.2672 93.3402
lradius 42.9327
lwrist 5.74464
lhand -1.65089 18.3873
lfingers 7.12502
lthumb 24.0082 46.9059
rfemur -18.7207 2.21323 21.4456
rtibia 28.2236
rfoot -25.0025 -16.1718
rtoes 11.8278
lfemur -22.1328 1.93541 -20.3986
ltibia 29.5154
lfoot -35.2216 -0.0705131
ltoes 50.1778
11
root 4.81242 17.1221 -20.3623 10.372 2.99149 -0.110849
lowerback -8.97895 1.7155 1.58994
upperback -1.10422 2.14969 -0.518644
thorax 3.96451 1.09447 -1.16735
lowerneck -12.209 -3.1653 -1.04402
upperneck 2.86397 -4.14751 1.48721
head 3.13412 -2.00769 0.401669
rclavicle -1.42876e-014 -5.49143e-015
rhumerus -39.8369 -1.47194 -88.3848
rradius 37.3263
rwrist 12.9396
rhand -25.0594 -20.287
rfingers 7.12502
rthumb 1.45421 -50.2618
lclavicle -1.42876e-014 -5.49143e-015
lhumerus -41.4444 -14.2117 93.3388
lradius 42.9185
lwrist 5.73632
lhand -1.65615 18.3673
lfingers 7.12502
lthumb 24.0032 46.8865
rfemur -18.734 2.16629 21.4485
rtibia 28.1921
rfoot -24.8751 -16.0949
rtoes 11.3316
lfemur -22.1788 1.87045 -20.3849
ltibia 29.5388
lfoot -34.9276 0.0300376
ltoes 50.0188
12
root 4.81312 17.1235 -20.3608 10.3942 2.95143 -0.114284
lowerback -8.99573 1.7194 1.60263
upperback -1.11297 2.15312 -0.512703
thorax 3.96512 1.09626 -1.16755
lowerneck -12.2038 -3.15217 -1.05729
upperneck 2.88619 -4.12814 1.4828
head 3.14083 -1.99841 0.403741
rclavicle 1.52505e-015 3.52843e-015
rhumerus -39.8369 -1.44971 -88.3823
rradius 37.321
rwrist 12.9431
rhand -25.0516 -20.2828
rfingers 7.12502
rthumb 1.46173 -50.2575
lclavicle 1.52505e-015 3.52843e-015
lhumerus -41.4511 -14.1593 93.3378
lradius 42.9063
lwrist 5.72693
lhand -1.6614 18.3536
lfingers 7.12502
lthumb 23.9981 46.8735
rfemur -18.7565 2.12535 21.4488
rtibia 28.18
rfoot -24.7677 -16.0326
rtoes 10.8355
lfemur -22.2122 1.8588 -20.3829
ltibia 29.5485
lfoot -34.6398 0.0733193
ltoes 49.879
13
root 4.81362 17.1239 -20.3594 10.4113 2.92226 -0.115705
lowerback -9.00967 1.71885 1.6111
upperback -1.11976 2.15108 -0.50635
thorax 3.96583 1.09528 -1.16569
lowerneck -12.2027 -3.13919 -1.0686
upperneck 2.91165 -4.10911 1.47593
head 3.14934 -1.98934 0.404554
rclavicle -1.53126e-015 2.26118e-014
rhumerus -39.8379 -1.4276 -88.3813
rradius 37.3114
rwrist 12.9656
rhand -25.0635 -20.2699
rfingers 7.12502
rthumb 1.45021 -50.2447
lclavicle -1.53126e-015 2.26118e-014
lhumerus -41.4588 -14.1121 93.3373
lradius 42.8952
lwrist 5.71596
lhand -1.66549 18.3465
lfingers 7.12502
lthumb 23.9942 46.8669
rfemur -18.779 2.09726 21.449
rtibia 28.1873
rfoot -24.6799 -15.9975
rtoes 10.3379
lfemur -22.2198 1.87084 -20.3862
ltibia 29.5438
lfoot -34.3686 0.0795972
ltoes 49.7598
